<?xml version="1.0" standalone="no"?>
<!DOCTYPE svg PUBLIC "-//W3C//DTD SVG 1.1//EN" "http://www.w3.org/Graphics/SVG/1.1/DTD/svg11.dtd">
<svg xmlns="http://www.w3.org/2000/svg" width="500" height="104" viewBox="0 0 500 104" fill="none">
<path d="M33.8425 35.4261C52.7505 35.4261 66.4519 49.5386 66.4519 69.1316C66.4519 88.8617 52.6135 103.111 33.4315 103.111C14.2495 103.111 0 90.2318 0 70.9433V51.4568V2.81671H13.7014V44.8801C18.771 38.1664 25.4846 35.4261 33.8425 35.4261ZM32.1983 90.2318C43.9816 90.2318 52.4765 81.3259 52.4765 69.1316C52.4765 57.0744 43.9816 48.3055 32.3354 48.3055C20.8262 48.3055 13.7014 57.2114 13.7014 69.4056C13.7014 81.4629 20.6892 90.2318 32.1983 90.2318Z" fill="#F78B27"/>
<path d="M108.66 37.0703V49.4016H93.3142V80.9148C93.3142 86.9435 95.9175 90.2318 100.85 90.2318C103.59 90.2318 106.194 89.1357 108.66 86.8064V99.9598C104.823 102.152 101.261 103.111 97.2876 103.111C85.6414 103.111 79.4758 95.8494 79.6128 82.011V49.4016H70.0218V37.0703H79.6128L93.3142 16.9292V37.0703H108.66Z" fill="#F78B27"/>
<path d="M150.877 35.8371C152.796 35.8371 154.166 36.1112 156.495 36.9333V51.4568C154.303 50.0866 152.11 49.5386 149.37 49.5386C139.094 49.5386 132.791 57.2114 132.791 68.1725V101.467H119.09V37.0703H132.791V46.5243C136.491 39.5365 142.656 35.8371 150.877 35.8371Z" fill="#F78B27"/>
<path fill-rule="evenodd" clip-rule="evenodd" d="M443.208 14.3366C436.058 12.7333 430.474 7.14976 428.871 0C427.268 7.14976 421.684 12.7333 414.535 14.3366C421.684 15.9399 427.268 21.5234 428.871 28.6731C430.474 21.5234 436.058 15.9399 443.208 14.3366ZM394.872 2.8167V45.1541C389.803 38.7144 383.089 35.4261 374.457 35.4261C356.645 35.4261 342.122 48.9905 342.122 69.2686C342.122 89.5467 356.645 103.111 374.868 103.111C384.048 103.111 390.762 99.6858 395.694 92.9721V101.467H408.574V2.8167H394.872ZM396.379 69.4056C396.379 81.4629 388.022 90.2318 376.375 90.2318C364.592 90.2318 356.097 81.3259 356.097 69.1316C356.097 57.0743 364.592 48.3054 376.238 48.3054C387.885 48.3054 396.379 57.2114 396.379 69.4056ZM235.251 35.4261C249.637 35.4261 260.05 45.5651 260.05 59.8146V101.467H246.349V63.24C246.349 54.3341 240.731 48.3054 232.236 48.3054C223.878 48.3054 218.124 54.4711 218.124 63.24V101.467H204.422V63.925C204.422 54.4711 198.805 48.3054 190.31 48.3054C181.815 48.3054 176.198 54.6081 176.198 63.925V101.467H162.496V75.9823V63.24C162.496 45.2911 175.034 35.4261 190.31 35.4261C201.188 35.4261 208.025 39.9476 212.273 47.3463C216.246 39.9476 225.797 35.4261 235.251 35.4261ZM302.809 35.4261C324.184 35.4261 337.474 52.1418 334.597 76.1193H285.546C288.56 84.4772 296.507 90.2318 307.057 90.2318C313.359 90.2318 319.114 88.1766 325.28 83.5181V97.6306C319.525 101.467 313.771 103.111 306.235 103.111C285.272 103.111 270.2 88.4506 270.2 68.4465C270.2 50.2236 282.805 35.4261 302.809 35.4261ZM303.083 48.3054C293.629 48.3054 286.368 54.6081 284.586 63.788H320.895C319.251 54.197 312.811 48.3054 303.083 48.3054ZM435.984 101.467H422.283V37.0703H435.984V101.467ZM499.658 62.5549C499.658 46.1132 488.834 35.4261 471.981 35.4261C466.09 35.4261 460.472 36.6592 454.169 39.3995V52.8269C459.239 49.6756 464.446 48.0314 469.926 48.0314C480.613 48.0314 487.327 54.197 487.053 63.925V65.5692C483.765 60.2257 478.01 57.3484 470.2 57.3484C456.362 57.3484 446.634 66.8023 446.634 79.9557C446.634 93.3831 456.636 103.111 470.748 103.111C478.01 103.111 484.039 99.9598 487.053 94.6162V101.467H499.658V62.5549ZM486.642 79.9557C486.642 87.2175 481.298 92.15 473.762 92.15C466.09 92.15 460.609 87.2175 460.609 80.0927C460.609 73.105 466.09 68.0355 473.762 68.0355C481.298 68.0355 486.642 73.105 486.642 79.9557Z" fill="black"/>
</svg>